# xmcd
#
# Track frame offsets:
#	150
#	11894
#	25699
#	38407
#	52129
#	65409
#	89194
#	109384
#	127063
#	136342
#	150472
#	164177
#	190171
#	206433
#	222183
#	249834
#	272185
#
# Disc length: 3827 seconds
#
# Revision: 1
# Processed by: cddbd v1.5.2PL0 Copyright (c) Steve Scherf et al.
# Submitted via: EasyCDDAExtractor 9.0.0.1
#
DISCID=fc0ef111
DTITLE=Colorado Band - Across The Ocean
DYEAR=2012
DGENRE=Country
TTITLE0=That's Alright Mama (G. Hamilton IV, G. Hamilton V, Lonstar, J. Nastar
TTITLE0=owicz)
TTITLE1=Abilene (G. Hamilton IV, G. Hamilton V, Lonstar, J. Nastarowicz)
TTITLE2=Break My Mind (G. Hamilton IV, G. Hamilton V)
TTITLE3=Heart Of Gold  (G. Hamilton IV)
TTITLE4=Early Morning Rain (G. Hamilton IV, G. Hamilton V)
TTITLE5=Welcome to My Broken Heart (George Hamilton V)
TTITLE6=Me And Bobby McGhee (G. Hamilton IV, G. Hamilton V, Lonstar, J. Nastar
TTITLE6=owicz)
TTITLE7=Forever Young (G. Hamilton IV, G. Hamilton V)
TTITLE8=Truck Driving Man (G. Hamilton IV, G. Hamilton V)
TTITLE9=The Way Old Friends Do (G. Hamilton IV, J. Nastarowicz)
TTITLE10=Till I Can Gain Control Again (G. Hamilton IV)
TTITLE11=Knockin' On Heaven Door (G. Hamilton IV, G. Hamilton V, Lonstar, J. N
TTITLE11=astarowicz)
TTITLE12=Livin' In A Slow Line (G. Hamilton IV, Lonstar)
TTITLE13=Will The Circle Be Unbroken (G. Hamilton IV, G. Hamilton V, Lonstar, 
TTITLE13=J. Nastarowicz)
TTITLE14=Mamma Help Me Out - Mamo pomó¿ mi ( G. Hamilton V, Lonstar)
TTITLE15=No End Of The Line - Taka ma³a stacja (G. Hamilton IV, Lonstar, J. Na
TTITLE15=starowicz, J. Karasiñski)
TTITLE16=I Always Be Back - Wracam do £odzi  ( G. Hamilton V, Lonstar)
EXTD=
EXTT0=
EXTT1=
EXTT2=
EXTT3=
EXTT4=
EXTT5=
EXTT6=
EXTT7=
EXTT8=
EXTT9=
EXTT10=
EXTT11=
EXTT12=
EXTT13=
EXTT14=
EXTT15=
EXTT16=
PLAYORDER=
